<svg width="36" height="38" viewBox="0 0 36 38" fill="none" xmlns="http://www.w3.org/2000/svg">
<path d="M13.9576 19.9898C13.9576 21.5681 13.1401 24.1508 11.2051 24.1508C9.27006 24.1508 8.45256 21.5681 8.45256 19.9898C8.45256 18.4114 9.27006 15.8287 11.2051 15.8287C13.1401 15.8287 13.9576 18.4114 13.9576 19.9898V19.9898ZM36.0001 16.1761C36.0001 18.5851 35.7601 21.1377 34.6876 23.3503C31.8451 29.1351 24.0301 28.9991 18.4351 28.9991C12.7501 28.9991 4.47006 29.203 1.51506 23.3503C0.420061 21.1603 6.10352e-05 18.5851 6.10352e-05 16.1761C6.10352e-05 13.0119 1.04256 10.0213 3.11256 7.59717C2.72256 6.40398 2.53506 5.15037 2.53506 3.91186C2.53506 2.28821 2.90256 1.47261 3.63006 0C7.02756 0 9.20256 0.679667 11.7901 2.71867C13.9651 2.19759 16.2001 1.96348 18.4426 1.96348C20.4676 1.96348 22.5076 2.18249 24.4726 2.65825C27.0226 0.641908 29.1976 0 32.5576 0C33.2926 1.47261 33.6526 2.28821 33.6526 3.91186C33.6526 5.15037 33.4576 6.38132 33.0751 7.55186C35.1376 9.99866 36.0001 13.0119 36.0001 16.1761V16.1761ZM31.1776 19.9898C31.1776 16.6745 29.1751 13.7519 25.6651 13.7519C24.2476 13.7519 22.8901 14.0087 21.4651 14.205C20.3476 14.3787 19.2301 14.4467 18.0826 14.4467C16.9426 14.4467 15.8251 14.3787 14.7001 14.205C13.2976 14.0087 11.9251 13.7519 10.5001 13.7519C6.99006 13.7519 4.98756 16.6745 4.98756 19.9898C4.98756 26.6203 11.0176 27.6398 16.2676 27.6398H19.8826C25.1551 27.6398 31.1776 26.6279 31.1776 19.9898V19.9898ZM24.9826 15.8287C23.0476 15.8287 22.2301 18.4114 22.2301 19.9898C22.2301 21.5681 23.0476 24.1508 24.9826 24.1508C26.9176 24.1508 27.7351 21.5681 27.7351 19.9898C27.7351 18.4114 26.9176 15.8287 24.9826 15.8287Z" fill="#161B22"/>
<path d="M5.55519 34.8547L7.08602 30.2L7.96363 30.5311L8.83501 34.5524L8.37001 34.3769L11.3693 31.816L12.2404 32.1447L10.7226 36.8044L9.72713 36.4288L10.7419 33.3209L10.9252 33.3901L8.53324 35.4252L8.05514 35.2448L7.34929 32.0409L7.57197 32.1249L6.55069 35.2303L5.55519 34.8547Z" fill="#161B22"/>
<path d="M15.9121 37.064L14.0156 32.0509L15.2387 32.1192L16.8941 36.558L16.1742 36.5178L18.2371 32.2865L19.3623 32.3492L17.0303 37.1264L15.9121 37.064Z" fill="#161B22"/>
<path d="M24.1906 36.2837C23.8207 36.4134 23.4503 36.4889 23.0795 36.5101C22.7073 36.527 22.3917 36.4918 22.1329 36.4046L22.2324 35.4649C22.4767 35.5375 22.7483 35.5732 23.0472 35.5722C23.349 35.5653 23.6387 35.5131 23.9161 35.4158C24.1275 35.3417 24.2906 35.2623 24.4053 35.1776C24.523 35.0869 24.6004 34.993 24.6376 34.8959C24.6747 34.7988 24.6774 34.7015 24.6457 34.6038C24.6053 34.4795 24.5252 34.3989 24.4052 34.3618C24.2839 34.3203 24.1367 34.3052 23.9637 34.3164C23.7893 34.3232 23.5988 34.3406 23.392 34.3686C23.1883 34.3906 22.9794 34.4045 22.7655 34.4103C22.5559 34.4146 22.356 34.3957 22.1658 34.3536C21.9755 34.3116 21.8038 34.2284 21.6506 34.1042C21.5019 33.9784 21.3871 33.7912 21.3064 33.5426C21.2199 33.2763 21.2118 33.0097 21.2821 32.7428C21.3553 32.4699 21.5142 32.2189 21.7586 31.9898C22.006 31.7548 22.3477 31.5608 22.7837 31.4079C23.0743 31.306 23.3721 31.2411 23.677 31.2133C23.9805 31.181 24.2624 31.1959 24.5229 31.2578L24.4586 32.1925C24.2024 32.1439 23.9571 32.1286 23.7226 32.1466C23.4866 32.1601 23.2651 32.2031 23.0582 32.2757C22.8512 32.3483 22.6896 32.4322 22.5733 32.5273C22.4571 32.6225 22.3833 32.72 22.352 32.82C22.3192 32.9155 22.3194 33.0143 22.3526 33.1164C22.3915 33.2363 22.4717 33.3169 22.593 33.3584C22.713 33.3954 22.8594 33.4083 23.0324 33.3971C23.2053 33.3859 23.3937 33.3693 23.5975 33.3473C23.8057 33.3237 24.0138 33.3076 24.2219 33.2989C24.4344 33.2887 24.6358 33.3046 24.826 33.3466C25.0163 33.3887 25.1858 33.4726 25.3346 33.5984C25.4878 33.7227 25.604 33.9069 25.6833 34.151C25.7683 34.4128 25.7735 34.678 25.6988 34.9464C25.6241 35.2149 25.4631 35.4666 25.2157 35.7017C24.9727 35.9353 24.631 36.1292 24.1906 36.2837Z" fill="#161B22"/>
<path d="M29.8214 35.4435L28.4521 31.7107L27.0021 32.3074L26.6839 31.4399L30.6326 29.8149L30.9508 30.6824L29.5008 31.2791L30.8701 35.0119L29.8214 35.4435Z" fill="#161B22"/>
</svg>
